<svg width="48" height="49" viewBox="0 0 48 49" fill="none" xmlns="http://www.w3.org/2000/svg">
<g clip-path="url(#clip0_3_233)">
<mask id="mask0_3_233" style="mask-type:alpha" maskUnits="userSpaceOnUse" x="0" y="0" width="48" height="49">
<path d="M48 24.5C48 11.2452 37.2548 0.5 24 0.5C10.7452 0.5 0 11.2452 0 24.5C0 37.7548 10.7452 48.5 24 48.5C37.2548 48.5 48 37.7548 48 24.5Z" fill="white"/>
</mask>
<g mask="url(#mask0_3_233)">
<path d="M48 0.5H0V48.5H48V0.5Z" fill="#45AFEA"/>
<path d="M8.46198 26.4157L33.3307 46.554C36.7643 49.3345 41.8019 48.805 44.5824 45.3713L64.7206 20.5027C67.5012 17.069 66.9717 12.0315 63.538 9.25095L38.6694 -10.8873C35.2357 -13.6678 30.1981 -13.1383 27.4176 -9.70469L7.27938 15.164C4.49886 18.5976 5.02834 23.6352 8.46198 26.4157Z" fill="#064061"/>
<path d="M25.8407 19.8578C28.2659 21.5919 30.8998 22.0091 33.7422 21.1093" stroke="white" stroke-width="2.22222" stroke-linecap="round"/>
<path d="M22.0658 13.8601C22.181 13.1328 21.8322 12.4732 21.2867 12.3868C20.7412 12.3004 20.2056 12.82 20.0904 13.5473C19.9752 14.2746 20.324 14.9342 20.8695 15.0206C21.415 15.107 21.9506 14.5875 22.0658 13.8601Z" fill="white"/>
<path d="M40.5026 16.7803C40.6178 16.0529 40.269 15.3933 39.7235 15.3069C39.178 15.2205 38.6424 15.7401 38.5272 16.4674C38.412 17.1947 38.7609 17.8543 39.3064 17.9407C39.8518 18.0271 40.3874 17.5076 40.5026 16.7803Z" fill="white"/>
</g>
</g>
<defs>
<clipPath id="clip0_3_233">
<rect width="48" height="48" fill="white" transform="translate(0 0.5)"/>
</clipPath>
</defs>
</svg>
